<?xml version='1.0' encoding='utf-8'?>
<svg width="800px" height="800px" viewBox="0.0 0.0 512.0 512.0" fill="none">
<path d="M256,221.8667V426.6667M256,221.8667C256,174.0755 256,150.1801 246.6987,131.9262C238.5173,115.8697 225.4635,102.8154 209.4071,94.634C191.1533,85.3333 167.2578,85.3333 119.4667,85.3333H98.1333C86.1856,85.3333 80.2116,85.3333 75.6482,87.6585C71.6341,89.7039 68.3706,92.9675 66.3251,96.9815C64,101.545 64,107.5189 64,119.4667V349.8667C64,361.8155 64,367.7888 66.3251,372.352C68.3706,376.3669 71.6341,379.6288 75.6482,381.6747C80.2116,384 86.1856,384 98.1333,384H160.9958C172.5199,384 178.2818,384 183.8537,384.9941C188.7989,385.8752 193.6235,387.3344 198.2274,389.3461C203.4142,391.6096 208.2084,394.8053 217.7963,401.1989L256,426.6667M256,221.8667C256,174.0755 256,150.1801 265.3013,131.9262C273.4827,115.8697 286.5365,102.8154 302.592,94.634C320.8469,85.3333 344.7424,85.3333 392.5333,85.3333H413.8667C425.8155,85.3333 431.7888,85.3333 436.352,87.6585C440.3669,89.7039 443.6288,92.9675 445.6747,96.9815C448,101.545 448,107.5189 448,119.4667V349.8667C448,361.8155 448,367.7888 445.6747,372.352C443.6288,376.3669 440.3669,379.6288 436.352,381.6747C431.7888,384 425.8155,384 413.8667,384H351.0037C339.4795,384 333.7173,384 328.1472,384.9941C323.2,385.8752 318.3765,387.3344 313.7728,389.3461C308.5867,391.6096 303.7909,394.8053 294.2037,401.1989L256,426.6667" stroke="inherit" stroke-width="inherit" stroke-linecap="round" stroke-linejoin="round" />
</svg>