<?xml version='1.0' encoding='utf-8'?>
<svg enable-background="new 0 0 24 24" height="24px" viewBox="0.0 0.0 512.0 512.0" width="24px" fill="undefined"><rect fill="none" height="512.0" width="512.0" /><path d="M362.6667,298.6667c-5.12,-5.12 -9.3867,-10.4533 -13.8667,-16C373.5467,245.3333 405.3333,182.6133 405.3333,106.6667c0,-41.6 -15.7867,-64 -42.6667,-64c-32.8533,0 -84.48,43.9467 -106.6667,127.36C233.8133,86.6133 182.1867,42.6667 149.3333,42.6667C122.4533,42.6667 106.6667,65.0667 106.6667,106.6667c0,75.9467 31.7867,138.6667 56.5333,176C158.72,288.2133 154.4533,293.5467 149.3333,298.6667c-5.3333,5.3333 -42.6667,29.6533 -42.6667,74.6667C106.6667,426.24 149.76,469.3333 202.6667,469.3333c32,0 53.3333,-10.6667 53.3333,-10.6667s21.3333,10.6667 53.3333,10.6667c52.9067,0 96,-43.0933 96,-96C405.3333,328.32 368,304 362.6667,298.6667zM360.1067,85.9733C361.3867,89.6 362.6667,96.2133 362.6667,106.6667c0,60.5867 -23.68,111.7867 -44.16,144.64c-8.1067,-5.5467 -17.7067,-10.24 -29.8667,-13.2267C293.76,141.6533 340.6933,92.3733 360.1067,85.9733zM149.3333,106.6667c0,-10.4533 1.28,-17.0667 2.56,-20.6933c19.4133,6.4 66.3467,55.68 71.68,152.1067c-12.3733,2.9867 -21.9733,7.4667 -29.8667,13.2267C173.0133,218.4533 149.3333,167.2533 149.3333,106.6667zM309.3333,426.6667c-21.3333,0 -38.4,-7.04 -47.36,-11.9467C270.9333,410.88 277.3333,399.5733 277.3333,394.6667c0,-5.9733 -9.6,-10.6667 -21.3333,-10.6667s-21.3333,4.6933 -21.3333,10.6667c0,4.9067 6.4,16.2133 15.36,20.0533C241.0667,419.6267 224,426.6667 202.6667,426.6667C173.2267,426.6667 149.3333,402.7733 149.3333,373.3333c0,-14.9333 9.1733,-26.4533 21.3333,-36.9067c9.3867,-7.68 13.0133,-11.0933 27.7333,-29.2267c16.2133,-20.2667 23.2533,-29.8667 57.6,-29.8667s41.3867,9.6 57.6,29.8667c14.72,18.1333 18.3467,21.5467 27.7333,29.2267c12.16,10.4533 21.3333,21.9733 21.3333,36.9067C362.6667,402.7733 338.7733,426.6667 309.3333,426.6667zM298.6667,341.3333c0,8.7467 -4.6933,16 -10.6667,16S277.3333,350.08 277.3333,341.3333c0,-8.7467 4.6933,-16 10.6667,-16S298.6667,332.5867 298.6667,341.3333zM234.6667,341.3333c0,8.7467 -4.6933,16 -10.6667,16S213.3333,350.08 213.3333,341.3333c0,-8.7467 4.6933,-16 10.6667,-16S234.6667,332.5867 234.6667,341.3333z" /></svg>