<?xml version='1.0' encoding='utf-8'?>
<svg enable-background="new 0 0 24 24" height="24px" viewBox="0.0 0.0 512.0 512.0" width="24px"
    fill="undefined">
    <rect fill="none" height="512.0" width="512.0" />
    <path
        d="M256,42.6667c-113.7067,97.0667 -170.6667,180.9067 -170.6667,251.7333c0,106.24 81.0667,174.9333 170.6667,174.9333s170.6667,-68.6933 170.6667,-174.9333C426.6667,223.5733 369.7067,139.7333 256,42.6667zM256,426.6667c-71.4667,0 -128,-54.8267 -128,-132.2667c0,-49.92 41.6,-116.0533 128,-194.9867c86.4,78.9333 128,144.8533 128,194.9867C384,371.84 327.4667,426.6667 256,426.6667zM167.04,298.6667c7.8933,0 14.2933,5.5467 15.7867,13.2267c8.7467,47.36 48.64,63.5733 77.6533,61.2267c9.1733,-0.4267 16.8533,6.8267 16.8533,16c0,8.5333 -6.8267,15.5733 -15.36,16c-45.44,2.7733 -98.56,-23.2533 -110.72,-87.8933C149.5467,307.6267 157.2267,298.6667 167.04,298.6667z" />
</svg>