<?xml version='1.0' encoding='utf-8'?>
<svg enable-background="new 0 0 24 24" height="24px" viewBox="0.0 0.0 512.0 512.0" width="24px" fill="undefined"><g><rect fill="none" height="512.0" width="512.0" /></g><g><g><path d="M256,64C181.3333,64 106.6667,199.04 106.6667,298.6667c0,82.56 66.7733,149.3333 149.3333,149.3333c82.56,0 149.3333,-66.7733 149.3333,-149.3333C405.3333,199.04 330.6667,64 256,64zM256,405.3333c-58.88,0 -106.6667,-47.7867 -106.6667,-106.6667c0,-87.2533 65.4933,-192 106.6667,-192s106.6667,104.7467 106.6667,192C362.6667,357.5467 314.88,405.3333 256,405.3333z" /><path d="M277.3333,341.3333c-12.3733,0 -64,-1.7067 -64,-64c0,-11.7333 -9.6,-21.3333 -21.3333,-21.3333s-21.3333,9.6 -21.3333,21.3333c0,64 42.4533,106.6667 106.6667,106.6667c11.7333,0 21.3333,-9.6 21.3333,-21.3333S289.0667,341.3333 277.3333,341.3333z" /></g></g></svg>