<?xml version='1.0' encoding='utf-8'?>
<svg height="24px" viewBox="0.0 0.0 512.0 512.0" width="24px" fill="undefined"><path d="M0,0h512v512H0V0z" fill="none" /><path d="M277.3333,343.8933h-0.64c74.4533,-8.5333 132.2667,-71.68 132.2667,-148.2667 0,-82.56 -66.7733,-149.3333 -149.3333,-149.3333s-149.3333,66.7733 -149.3333,149.3333c0,74.0267 53.76,135.2533 124.3733,146.9867V426.6667H106.6667v42.6667h298.6667v-42.6667h-128v-82.7733zM152.96,195.6267c0,-58.88 47.7867,-106.6667 106.6667,-106.6667s106.6667,47.7867 106.6667,106.6667 -47.7867,106.6667 -106.6667,106.6667 -106.6667,-47.7867 -106.6667,-106.6667z" /></svg>