<?xml version='1.0' encoding='utf-8'?>
<svg height="24px" viewBox="0.0 0.0 512.0 512.0" width="24px" fill="undefined"><path d="M0,0h512v512H0V0z" fill="none" /><circle cx="4.5" cy="9.5" r="1.5" /><path d="M472.96,195.6267c0,-82.56 -66.7733,-149.3333 -149.3333,-149.3333s-149.3333,66.7733 -149.3333,149.3333c0,74.0267 53.76,135.2533 124.3733,146.9867V426.6667H128v-64h21.3333v-85.3333c0,-11.7333 -9.6,-21.3333 -21.3333,-21.3333H64c-11.7333,0 -21.3333,9.6 -21.3333,21.3333v85.3333h21.3333v106.6667h341.3333v-42.6667h-64v-82.7733c74.0267,-8.7467 131.6267,-71.68 131.6267,-148.2667zm-149.3333,106.6667c-58.88,0 -106.6667,-47.7867 -106.6667,-106.6667s47.7867,-106.6667 106.6667,-106.6667 106.6667,47.7867 106.6667,106.6667 -47.7867,106.6667 -106.6667,106.6667z" /></svg>