<?xml version='1.0' encoding='utf-8'?>
<svg height="24px" viewBox="0.0 0.0 512.0 512.0" width="24px" fill="undefined"><path d="M0,0h512v512H0V0z" fill="none" /><path d="M330.4533,205.44c-3.84,-59.52 -27.9467,-117.5467 -73.1733,-162.7733 -45.6533,45.6533 -70.8267,103.68 -75.7333,162.7733 27.3067,14.5067 52.48,33.28 74.4533,56.1067 21.9733,-22.6133 47.1467,-41.3867 74.4533,-56.1067zm-73.3867,-94.72c13.44,21.9733 22.8267,46.5067 27.7333,72.1067 -10.0267,6.4 -19.4133,13.44 -28.5867,20.9067 -8.96,-7.2533 -18.56,-14.2933 -28.3733,-20.6933 5.3333,-25.6 15.1467,-50.1333 29.2267,-72.32zM256,329.6c-17.4933,-26.6667 -39.68,-49.92 -65.28,-68.2667 -2.7733,-1.92 -5.76,-3.4133 -8.5333,-5.5467 2.7733,1.92 5.76,3.6267 8.32,5.3333C148.9067,231.04 97.92,213.3333 42.6667,213.3333c0,113.4933 71.68,209.4933 171.3067,245.12 13.44,4.9067 27.52,8.5333 42.0267,10.88 14.5067,-2.56 28.3733,-6.1867 42.0267,-10.88C397.6533,422.8267 469.3333,326.8267 469.3333,213.3333c-89.1733,0 -167.4667,46.2933 -213.3333,116.2667zm28.16,88.5333c-9.3867,3.2 -18.7733,5.76 -28.3733,7.8933 -9.3867,-1.92 -18.56,-4.48 -27.3067,-7.68 -70.1867,-25.1733 -121.6,-85.12 -137.6,-156.8 23.4667,5.5467 45.8667,15.1467 66.56,28.3733l-0.4267,0.2133c2.7733,1.92 5.5467,3.84 8.32,5.3333l1.4933,0.8533c21.12,15.36 39.2533,34.3467 53.5467,56.5333L256,407.4667l35.6267,-54.4c14.72,-22.4 33.0667,-41.6 53.9733,-56.7467l1.4933,-1.0667c1.92,-1.0667 3.84,-2.3467 5.76,-3.6267l-0.2133,-0.4267c20.9067,-13.8667 44.16,-24.1067 68.48,-29.8667 -16,71.8933 -67.2,131.84 -136.96,156.8zm-92.3733,-156.16c-0.4267,-0.2133 -0.8533,-0.64 -1.0667,-0.8533 0,0 0.2133,0 0.2133,0.2133 0.2133,0.2133 0.4267,0.4267 0.8533,0.64z" /></svg>